<svg xmlns="http://www.w3.org/2000/svg" width="1200" height="630" viewBox="0 0 1200 630" role="img" aria-labelledby="title desc">
<title id="title">Fuite chauffage à Angers</title>
<desc id="desc">Baisse de pression, radiateur et circuit de chauffage</desc>
<defs>
  <linearGradient id="bg" x1="0" y1="0" x2="1" y2="1"><stop offset="0" stop-color="#f7f9fb"/><stop offset="1" stop-color="#eef6ff"/></linearGradient>
  <filter id="shadow" x="-20%" y="-20%" width="140%" height="140%"><feDropShadow dx="0" dy="18" stdDeviation="24" flood-color="#102a43" flood-opacity=".14"/></filter>
</defs>
<rect width="1200" height="630" rx="0" fill="url(#bg)"/>
<circle cx="1050" cy="90" r="150" fill="#ef4444" opacity=".11"/>
<circle cx="120" cy="540" r="180" fill="#ef4444" opacity=".08"/>
<g filter="url(#shadow)"><rect x="90" y="76" width="1020" height="478" rx="34" fill="#fff" stroke="#dce7f2"/></g>
<g transform="translate(130 116)">
  <text x="0" y="0" font-family="Inter, Arial, sans-serif" font-size="24" font-weight="800" fill="#ef4444">Recherche Fuite Eau Angers</text>
  <text x="0" y="54" font-family="Inter, Arial, sans-serif" font-size="50" font-weight="850" fill="#0f172a">Fuite chauffage à Angers</text>
  <text x="0" y="96" font-family="Inter, Arial, sans-serif" font-size="22" font-weight="500" fill="#5f6b7a">Baisse de pression, radiateur et circuit de chauffage</text>
</g>
<g transform="translate(135 245)"><rect x="90" y="72" width="240" height="260" rx="22" fill="#fff" stroke="#0f75bd" stroke-width="9"/><path d="M140 112v180M190 112v180M240 112v180M290 112v180" stroke="#0f75bd" stroke-width="14" stroke-linecap="round"/><path d="M360 230h370" stroke="#ef4444" stroke-width="16" stroke-linecap="round"/><path d="M530 230c30 24 30 70 0 94c-30-24-30-70 0-94z" fill="#1d9bf0" opacity=".9"/><circle cx="820" cy="230" r="72" fill="#f8fafc" stroke="#94a3b8" stroke-width="8"/><path d="M820 230l42-38" stroke="#ef4444" stroke-width="10" stroke-linecap="round"/></g>
</svg>