<svg xmlns="http://www.w3.org/2000/svg" width="1200" height="630" viewBox="0 0 1200 630" role="img" aria-labelledby="title desc">
<title id="title">Thermographie fuite eau à Angers</title>
<desc id="desc">Caméra thermique, intérêt et limites</desc>
<defs>
  <linearGradient id="bg" x1="0" y1="0" x2="1" y2="1"><stop offset="0" stop-color="#f7f9fb"/><stop offset="1" stop-color="#eef6ff"/></linearGradient>
  <filter id="shadow" x="-20%" y="-20%" width="140%" height="140%"><feDropShadow dx="0" dy="18" stdDeviation="24" flood-color="#102a43" flood-opacity=".14"/></filter>
</defs>
<rect width="1200" height="630" rx="0" fill="url(#bg)"/>
<circle cx="1050" cy="90" r="150" fill="#f97316" opacity=".11"/>
<circle cx="120" cy="540" r="180" fill="#f97316" opacity=".08"/>
<g filter="url(#shadow)"><rect x="90" y="76" width="1020" height="478" rx="34" fill="#fff" stroke="#dce7f2"/></g>
<g transform="translate(130 116)">
  <text x="0" y="0" font-family="Inter, Arial, sans-serif" font-size="24" font-weight="800" fill="#f97316">Recherche Fuite Eau Angers</text>
  <text x="0" y="54" font-family="Inter, Arial, sans-serif" font-size="50" font-weight="850" fill="#0f172a">Thermographie fuite eau à Angers</text>
  <text x="0" y="96" font-family="Inter, Arial, sans-serif" font-size="22" font-weight="500" fill="#5f6b7a">Caméra thermique, intérêt et limites</text>
</g>
<g transform="translate(135 245)"><rect x="90" y="60" width="360" height="240" rx="22" fill="#172554"/><rect x="124" y="94" width="292" height="172" rx="18" fill="#0f172a"/>
<circle cx="230" cy="178" r="70" fill="#f97316" opacity=".85"/><circle cx="290" cy="160" r="54" fill="#facc15" opacity=".7"/><circle cx="186" cy="220" r="48" fill="#38bdf8" opacity=".75"/>
<path d="M520 270h340" stroke="#0f75bd" stroke-width="18" stroke-linecap="round"/><path d="M690 270c32-62 82-98 150-108" fill="none" stroke="#f97316" stroke-width="12" stroke-linecap="round"/></g>
</svg>