<svg xmlns="http://www.w3.org/2000/svg" viewBox="0 0 800 600" preserveAspectRatio="xMidYMid slice">
<defs>
<linearGradient id="bg" x1="0" y1="0" x2="1" y2="1"><stop offset="0" stop-color="#0a3d62"></stop><stop offset="1" stop-color="#1f7fc4"></stop></linearGradient>
<linearGradient id="bgsky" x1="0" y1="0" x2="1" y2="1"><stop offset="0" stop-color="#1f7fc4"></stop><stop offset="1" stop-color="#3c9ee5"></stop></linearGradient>
<linearGradient id="thermal" x1="0" y1="1" x2="1" y2="0"><stop offset="0" stop-color="#15307a"></stop><stop offset=".45" stop-color="#16a34a"></stop><stop offset=".72" stop-color="#f5d316"></stop><stop offset="1" stop-color="#ef4444"></stop></linearGradient>
<radialGradient id="hot" cx="50%" cy="50%" r="50%"><stop offset="0" stop-color="#ef4444"></stop><stop offset=".45" stop-color="#f5a623"></stop><stop offset="1" stop-color="#16a34a" stop-opacity="0"></stop></radialGradient>
<pattern id="dots" width="38" height="38" patternUnits="userSpaceOnUse"><circle cx="4" cy="4" r="2.6" fill="#fff" opacity="0.06"></circle></pattern>
</defs>
<rect width="800" height="600" fill="url(#bg)"></rect>
<rect width="800" height="600" fill="url(#dots)"></rect>
<circle cx="710" cy="80" r="190" fill="#fff" opacity="0.05"></circle>
<circle cx="80" cy="540" r="160" fill="#fff" opacity="0.05"></circle>

<path d="M180 300 L400 140 L620 300 V500 H180 Z" fill="#0a3d62" stroke="#fff" stroke-width="10"></path>
<rect x="360" y="380" width="80" height="120" fill="#06243a" stroke="#fff" stroke-width="8"></rect>
<g transform="translate(300 250) scale(1.6)"><path d="M0 -26C0 -26 -18 -2 -18 8a18 18 0 0 0 36 0C18 -2 0 -26 0 -26Z" fill="#bfe0fb" stroke="#fff" stroke-width="2.50"></path><path d="M-8 7a8 8 0 0 0 5 8" fill="none" stroke="#fff" stroke-width="1.88" stroke-linecap="round" opacity=".75"></path></g>
<g transform="translate(560 420)"><circle r="78" fill="#f5a623"></circle><path d="M-34 4 L-8 30 L40 -24" fill="none" stroke="#06243a" stroke-width="14" stroke-linecap="round" stroke-linejoin="round"></path></g>

</svg>